<?xml version="1.0" encoding="UTF-8"?>
<!DOCTYPE svg PUBLIC "-//W3C//DTD SVG 1.0//EN" "http://www.w3.org/TR/2001/REC-SVG-20010904/DTD/svg10.dtd">
<!-- Creator: CorelDRAW X8 -->
<svg xmlns="http://www.w3.org/2000/svg" xml:space="preserve" width="2550px" height="3300px" version="1.0" shape-rendering="geometricPrecision" text-rendering="geometricPrecision" image-rendering="optimizeQuality" fill-rule="evenodd" clip-rule="evenodd"
viewBox="0 0 2550000 3300000"
 xmlns:xlink="http://www.w3.org/1999/xlink">
 <defs>
    <clipPath id="id0">
     <path d="M2064469 1077106l-315983 0c-40773,0 -71353,-30578 -71353,-71351l0 -315984c0,-40773 30580,-71352 71353,-71352l315983 0c40773,0 71351,30579 71351,71352l0 315984c0,40773 -30578,71351 -71351,71351zm-193668 1727714l-1207868 0c-351661,0 -631966,-285405 -631966,-631965l0 -983624 0 -229344c0,-346563 280308,-626870 631966,-626870l1207868 0c346563,0 631966,280307 631966,626870l0 1212966c0,346562 -285404,631965 -631966,631965l0 2zm-1207871 -2334197c-270114,0 -489264,219150 -489264,489264l0 157992 774669 0c91737,-66255 198765,-101931 315983,-101931 122316,0 229344,35676 321080,101931l774670 0 0 -157992c0,-270114 -219150,-489264 -489264,-489264l-1207870 0 0 0 -4 0zm-489264 789957l0 912273c0,270114 219150,489264 489264,489264l1207870 0c270113,0 489263,-219150 489263,-489264l0 -912273 -637061 0c61157,86641 91737,193668 91737,305790 0,305791 -244632,550422 -550422,550422 -300693,0 -550422,-244631 -550422,-550422 0,-112122 35675,-219149 96834,-305790l-637063 0zm1090652 -101930c-224246,0 -407720,183473 -407720,407720 0,224246 183474,412817 407720,412817 229344,0 412818,-188571 412818,-412817 0,-224247 -183474,-407720 -412818,-407720zm550422 -224246l178377 0 0 -178377 -178377 0 0 178377z"/>
    </clipPath>
 </defs>
 <g id="Camada_x0020_1">
  <metadata id="CorelCorpID_0Corel-Layer"/>
  <g id="_324996504992">
   <g>
   </g>
   <g clip-path="url(#id0)">
    <g id="_324996505056">
     <polygon fill="#4B5DD2" points="1391732,1566370 403010,-487520 479457,-523194 "/>
     <polygon id="_1" fill="#4D5CD1" points="1391732,1566370 469265,-518099 530422,-543581 "/>
     <polygon id="_2" fill="#505CD1" points="1391732,1566370 520228,-538483 586483,-563966 "/>
     <polygon id="_3" fill="#525BD0" points="1391732,1566370 571193,-558869 637448,-584352 "/>
     <polygon id="_4" fill="#545ACF" points="1391732,1566370 622160,-579256 688414,-599642 "/>
     <polygon id="_5" fill="#5659CE" points="1391732,1566370 678221,-599642 744476,-620027 "/>
     <polygon id="_6" fill="#5859CE" points="1391732,1566370 729185,-614930 795439,-635317 "/>
     <polygon id="_7" fill="#5B58CD" points="1391732,1566370 785246,-630221 851502,-645509 "/>
     <polygon id="_8" fill="#5D57CC" points="1391732,1566370 836212,-645509 907563,-660800 "/>
     <polygon id="_9" fill="#5F56CB" points="1391732,1566370 892273,-655703 963625,-670994 "/>
     <polygon id="_10" fill="#6156CA" points="1391732,1566370 948335,-665897 1014589,-681185 "/>
     <polygon id="_11" fill="#6355CA" points="1391732,1566370 1004396,-676089 1070650,-691380 "/>
     <polygon id="_12" fill="#6554C9" points="1391732,1566370 1055362,-686282 1126713,-696476 "/>
     <polygon id="_13" fill="#6853C8" points="1391732,1566370 1111423,-696476 1182774,-701572 "/>
     <polygon id="_14" fill="#6A53C7" points="1391732,1566370 1167484,-701572 1238836,-706668 "/>
     <polygon id="_15" fill="#6C52C6" points="1391732,1566370 1223546,-706668 1294898,-711764 "/>
     <polygon id="_16" fill="#6E51C6" points="1391732,1566370 1279607,-706668 1350959,-711764 "/>
     <polygon id="_17" fill="#7050C5" points="1391732,1566370 1335669,-711764 1407020,-711764 "/>
     <polygon id="_18" fill="#734FC4" points="1391732,1566370 1391732,-711764 1463081,-711764 "/>
     <polygon id="_19" fill="#754FC3" points="1391732,1566370 1447793,-711764 1519142,-706668 "/>
     <polygon id="_20" fill="#774EC3" points="1391732,1566370 1503854,-706668 1575206,-706668 "/>
     <polygon id="_21" fill="#794DC2" points="1391732,1566370 1559915,-706668 1631267,-701572 "/>
     <polygon id="_22" fill="#7B4CC1" points="1391732,1566370 1615976,-701572 1687328,-691380 "/>
     <polygon id="_23" fill="#7E4CC0" points="1391732,1566370 1672037,-696476 1738292,-686282 "/>
     <polygon id="_24" fill="#804BBF" points="1391732,1566370 1728100,-686282 1794353,-676089 "/>
     <polygon id="_25" fill="#824ABF" points="1391732,1566370 1784161,-676089 1850417,-665897 "/>
     <polygon id="_26" fill="#8449BE" points="1391732,1566370 1835126,-665897 1906478,-650607 "/>
     <polygon id="_27" fill="#8649BD" points="1391732,1566370 1891187,-655703 1957442,-640415 "/>
     <polygon id="_28" fill="#8848BC" points="1391732,1566370 1947248,-640415 2013503,-625124 "/>
     <polygon id="_29" fill="#8B47BB" points="1391732,1566370 1998215,-630221 2064469,-609836 "/>
     <polygon id="_30" fill="#8D46BB" points="1391732,1566370 2054276,-614930 2120530,-589448 "/>
     <polygon id="_31" fill="#8F46BA" points="1391732,1566370 2105241,-594546 2171494,-574160 "/>
     <polygon id="_32" fill="#9145B9" points="1391732,1566370 2161302,-579256 2227556,-553773 "/>
     <polygon id="_33" fill="#9344B8" points="1391732,1566370 2212267,-558869 2278522,-533387 "/>
     <polygon id="_34" fill="#9643B8" points="1391732,1566370 2263232,-538483 2329487,-507905 "/>
     <polygon id="_35" fill="#9843B7" points="1391732,1566370 2314196,-513002 2380452,-487520 "/>
     <polygon id="_36" fill="#9A42B6" points="1391732,1566370 2365162,-492614 2431417,-462035 "/>
     <polygon id="_37" fill="#9C41B5" points="1391732,1566370 2416127,-467132 2477284,-436553 "/>
     <polygon id="_38" fill="#9E40B4" points="1391732,1566370 2467091,-441650 2528249,-405974 "/>
     <polygon id="_39" fill="#A13FB4" points="1391732,1566370 2512961,-416169 2574118,-380492 "/>
     <polygon id="_40" fill="#A33FB3" points="1391732,1566370 2563925,-385589 2625083,-349913 "/>
     <polygon id="_41" fill="#A53EB2" points="1391732,1566370 2609794,-355010 2670952,-319335 "/>
     <polygon id="_42" fill="#A73DB1" points="1391732,1566370 2655661,-324431 2716820,-288755 "/>
     <polygon id="_43" fill="#A93CB0" points="1391732,1566370 2701532,-293852 2762689,-253080 "/>
     <polygon id="_44" fill="#AB3CB0" points="1391732,1566370 2747399,-263272 2803460,-217406 "/>
     <polygon id="_45" fill="#AE3BAF" points="1391732,1566370 2793268,-227597 2849329,-181729 "/>
     <polygon id="_46" fill="#B03AAE" points="1391732,1566370 2839136,-191921 2890102,-146054 "/>
     <polygon id="_47" fill="#B239AD" points="1391732,1566370 2879909,-156246 2930872,-110378 "/>
     <polygon id="_48" fill="#B339AC" points="1391732,1566370 2920681,-120572 2971645,-69606 "/>
     <polygon id="_49" fill="#B439AC" points="1391732,1566370 2961452,-79799 3012418,-33930 "/>
     <polygon id="_50" fill="#B539AB" points="1391732,1566370 3002225,-44124 3053189,6841 "/>
     <polygon id="_51" fill="#B639AA" points="1391732,1566370 3042997,-3351 3088865,47614 "/>
     <polygon id="_52" fill="#B739A9" points="1391732,1566370 3078671,37420 3124540,93482 "/>
     <polygon id="_53" fill="#B739A8" points="1391732,1566370 3114347,78193 3160217,134254 "/>
     <polygon id="_54" fill="#B839A7" points="1391732,1566370 3155120,124061 3195892,180124 "/>
     <polygon id="_55" fill="#B939A6" points="1391732,1566370 3185699,164833 3231566,220894 "/>
     <polygon id="_56" fill="#BA39A5" points="1391732,1566370 3221374,210703 3262146,266764 "/>
     <polygon id="_57" fill="#BA39A4" points="1391732,1566370 3251954,256570 3292724,312631 "/>
     <polygon id="_58" fill="#BB39A3" points="1391732,1566370 3287629,302439 3323303,363598 "/>
     <polygon id="_59" fill="#BC39A2" points="1391732,1566370 3318208,348307 3353882,409465 "/>
     <polygon id="_60" fill="#BD39A1" points="1391732,1566370 3343690,399272 3379367,460429 "/>
     <polygon id="_61" fill="#BE39A0" points="1391732,1566370 3374269,445141 3404849,506298 "/>
     <polygon id="_62" fill="#BE399F" points="1391732,1566370 3399751,496106 3430331,557263 "/>
     <polygon id="_63" fill="#BF399F" points="1391732,1566370 3425233,547071 3455812,608230 "/>
     <polygon id="_64" fill="#C0399E" points="1391732,1566370 3450716,592939 3481294,659193 "/>
     <polygon id="_65" fill="#C1399D" points="1391732,1566370 3476198,643903 3501683,710158 "/>
     <polygon id="_66" fill="#C2399C" points="1391732,1566370 3496585,694870 3522067,761125 "/>
     <polygon id="_67" fill="#C2399B" points="1391732,1566370 3516971,750931 3542453,817186 "/>
     <polygon id="_68" fill="#C3399A" points="1391732,1566370 3537357,801895 3557744,868150 "/>
     <polygon id="_69" fill="#C43999" points="1391732,1566370 3552646,852861 3573032,919114 "/>
     <polygon id="_70" fill="#C53998" points="1391732,1566370 3573032,908922 3588322,975176 "/>
     <polygon id="_71" fill="#C53997" points="1391732,1566370 3588322,959887 3603611,1031238 "/>
     <polygon id="_72" fill="#C63896" points="1391732,1566370 3598514,1015948 3618901,1082203 "/>
     <polygon id="_73" fill="#C73895" points="1391732,1566370 3613805,1072010 3629093,1138264 "/>
     <polygon id="_74" fill="#C83894" points="1391732,1566370 3623999,1122976 3639287,1194325 "/>
     <polygon id="_75" fill="#C93893" points="1391732,1566370 3634189,1179037 3644383,1250387 "/>
     <polygon id="_76" fill="#C93892" points="1391732,1566370 3644383,1235098 3654578,1306449 "/>
     <polygon id="_77" fill="#CA3892" points="1391732,1566370 3649480,1291159 3659672,1357414 "/>
     <polygon id="_78" fill="#CB3891" points="1391732,1566370 3659672,1347221 3664769,1413475 "/>
     <polygon id="_79" fill="#CC3890" points="1391732,1566370 3664769,1403282 3664769,1469536 "/>
     <polygon id="_80" fill="#CD388F" points="1391732,1566370 3664769,1459344 3669866,1525598 "/>
     <polygon id="_81" fill="#CD388E" points="1391732,1566370 3669866,1515406 3669866,1581660 "/>
     <polygon id="_82" fill="#CE388D" points="1391732,1566370 3669866,1571467 3669866,1637721 "/>
     <polygon id="_83" fill="#CF388C" points="1391732,1566370 3669866,1627528 3664769,1693783 "/>
     <polygon id="_84" fill="#D0388B" points="1391732,1566370 3664769,1683589 3659672,1749844 "/>
     <polygon id="_85" fill="#D0388A" points="1391732,1566370 3664769,1734555 3654578,1805906 "/>
     <polygon id="_86" fill="#D13889" points="1391732,1566370 3659672,1790616 3649480,1861969 "/>
     <polygon id="_87" fill="#D23888" points="1391732,1566370 3649480,1846678 3639287,1918030 "/>
     <polygon id="_88" fill="#D33887" points="1391732,1566370 3644383,1902739 3634189,1974091 "/>
     <polygon id="_89" fill="#D43886" points="1391732,1566370 3634189,1958800 3623999,2030152 "/>
     <polygon id="_90" fill="#D43885" points="1391732,1566370 3623999,2014864 3608708,2081117 "/>
     <polygon id="_91" fill="#D53885" points="1391732,1566370 3613805,2070925 3598514,2137180 "/>
     <polygon id="_92" fill="#D63884" points="1391732,1566370 3598514,2121889 3583226,2188143 "/>
     <polygon id="_93" fill="#D73883" points="1391732,1566370 3583226,2177950 3567935,2244204 "/>
     <polygon id="_94" fill="#D83882" points="1391732,1566370 3567935,2228916 3547550,2295169 "/>
     <polygon id="_95" fill="#D83881" points="1391732,1566370 3552646,2284977 3532261,2351232 "/>
     <polygon id="_96" fill="#D93880" points="1391732,1566370 3532261,2335942 3511874,2402197 "/>
     <polygon id="_97" fill="#DA3A7F" points="1391732,1566370 3516971,2386906 3491489,2453161 "/>
     <polygon id="_98" fill="#DA3B7E" points="1391732,1566370 3496585,2442970 3466006,2504127 "/>
     <polygon id="_99" fill="#DB3D7D" points="1391732,1566370 3471103,2493934 3440524,2555092 "/>
     <polygon id="_100" fill="#DB3E7C" points="1391732,1566370 3450716,2544898 3420137,2606056 "/>
     <polygon id="_101" fill="#DC3F7B" points="1391732,1566370 3425233,2595865 3389558,2657022 "/>
     <polygon id="_102" fill="#DC417A" points="1391732,1566370 3399751,2641731 3364076,2702890 "/>
     <polygon id="_103" fill="#DD4279" points="1391732,1566370 3369172,2692696 3338594,2753855 "/>
     <polygon id="_104" fill="#DD4478" points="1391732,1566370 3343690,2738565 3308015,2799724 "/>
     <polygon id="_105" fill="#DE4577" points="1391732,1566370 3313111,2789530 3277435,2845591 "/>
     <polygon id="_106" fill="#DF4776" points="1391732,1566370 3282533,2835399 3241760,2891460 "/>
     <polygon id="_107" fill="#DF4875" points="1391732,1566370 3251954,2881267 3211181,2937328 "/>
     <polygon id="_108" fill="#E04A73" points="1391732,1566370 3221374,2927137 3175505,2983198 "/>
     <polygon id="_109" fill="#E04B72" points="1391732,1566370 3185699,2973004 3139830,3023970 "/>
     <polygon id="_110" fill="#E14D71" points="1391732,1566370 3150022,3013776 3104156,3069837 "/>
     <polygon id="_111" fill="#E14E70" points="1391732,1566370 3114347,3059644 3068479,3110610 "/>
     <polygon id="_112" fill="#E2506F" points="1391732,1566370 3078671,3100417 3027706,3151381 "/>
     <polygon id="_113" fill="#E2516E" points="1391732,1566370 3037900,3141189 2992031,3192154 "/>
     <polygon id="_114" fill="#E3526D" points="1391732,1566370 2997128,3181961 2951261,3227830 "/>
     <polygon id="_115" fill="#E4546C" points="1391732,1566370 2961452,3217636 2910488,3268603 "/>
     <polygon id="_116" fill="#E4556B" points="1391732,1566370 2920681,3258409 2864619,3304277 "/>
     <polygon id="_117" fill="#E5576A" points="1391732,1566370 2874811,3294085 2823848,3339952 "/>
     <polygon id="_118" fill="#E55869" points="1391732,1566370 2834039,3329760 2777978,3375628 "/>
     <polygon id="_119" fill="#E65A68" points="1391732,1566370 2788172,3365434 2732111,3406207 "/>
     <polygon id="_120" fill="#E65B67" points="1391732,1566370 2747399,3401109 2691338,3441882 "/>
     <polygon id="_121" fill="#E75D66" points="1391732,1566370 2701532,3431689 2640373,3472462 "/>
     <polygon id="_122" fill="#E75E65" points="1391732,1566370 2655661,3462268 2594504,3503041 "/>
     <polygon id="_123" fill="#E86064" points="1391732,1566370 2604698,3492847 2548637,3528523 "/>
     <polygon id="_124" fill="#E96163" points="1391732,1566370 2558829,3523426 2497670,3559102 "/>
     <polygon id="_125" fill="#E96362" points="1391732,1566370 2512961,3548908 2451803,3584584 "/>
     <polygon id="_126" fill="#EA6461" points="1391732,1566370 2461996,3579487 2400839,3610067 "/>
     <polygon id="_127" fill="#EA6560" points="1391732,1566370 2411030,3604971 2349872,3635550 "/>
     <polygon id="_128" fill="#EB675F" points="1391732,1566370 2360066,3630454 2298907,3655936 "/>
     <polygon id="_129" fill="#EB685E" points="1391732,1566370 2309101,3650839 2247944,3676320 "/>
     <polygon id="_130" fill="#EC6A5D" points="1391732,1566370 2258135,3671224 2196977,3696709 "/>
     <polygon id="_131" fill="#EC6B5C" points="1391732,1566370 2207171,3691611 2140916,3717093 "/>
     <polygon id="_132" fill="#ED6D5B" points="1391732,1566370 2156206,3711997 2089951,3737479 "/>
     <polygon id="_133" fill="#EE6E5A" points="1391732,1566370 2100143,3732383 2033890,3752770 "/>
     <polygon id="_134" fill="#EE7059" points="1391732,1566370 2049178,3747673 1982924,3768058 "/>
     <polygon id="_135" fill="#EF7158" points="1391732,1566370 1993117,3762961 1926863,3783348 "/>
     <polygon id="_136" fill="#EF7357" points="1391732,1566370 1942153,3778252 1875899,3793540 "/>
     <polygon id="_137" fill="#F07456" points="1391732,1566370 1886091,3788445 1819838,3803734 "/>
     <polygon id="_138" fill="#F07654" points="1391732,1566370 1830030,3803734 1763774,3813927 "/>
     <polygon id="_139" fill="#F17753" points="1391732,1566370 1779065,3813927 1707713,3824119 "/>
     <polygon id="_140" fill="#F17852" points="1391732,1566370 1723004,3819025 1651652,3829217 "/>
     <polygon id="_141" fill="#F27A51" points="1391732,1566370 1666942,3829217 1595590,3834313 "/>
     <polygon id="_142" fill="#F27B50" points="1391732,1566370 1610880,3834313 1539529,3839409 "/>
     <polygon id="_143" fill="#F37D4F" points="1391732,1566370 1554819,3839409 1483468,3844506 "/>
     <polygon id="_144" fill="#F47E4E" points="1391732,1566370 1498756,3844506 1427405,3844506 "/>
     <polygon id="_145" fill="#F4804D" points="1391732,1566370 1442695,3844506 1371344,3844506 "/>
     <polygon id="_146" fill="#F5814C" points="1391732,1566370 1386634,3844506 1315283,3844506 "/>
     <polygon id="_147" fill="#F5834B" points="1391732,1566370 1330573,3844506 1264318,3844506 "/>
     <polygon id="_148" fill="#F6844A" points="1391732,1566370 1274510,3844506 1208257,3839409 "/>
     <polygon id="_149" fill="#F68649" points="1391732,1566370 1218449,3839409 1152194,3834313 "/>
     <polygon id="_150" fill="#F78748" points="1391732,1566370 1162388,3834313 1096133,3829217 "/>
     <polygon id="_151" fill="#F78947" points="1391732,1566370 1106327,3829217 1040072,3819025 "/>
     <polygon id="_152" fill="#F88A46" points="1391732,1566370 1055362,3819025 984011,3808831 "/>
     <polygon id="_153" fill="#F88A45" points="1391732,1566370 999299,3813927 927950,3798637 "/>
     <polygon id="_154" fill="#F88944" points="1391732,1566370 943238,3803734 876983,3788445 "/>
     <polygon id="_155" fill="#F88944" points="1391732,1566370 887177,3788445 820922,3773154 "/>
     <polygon id="_156" fill="#F88843" points="1391732,1566370 836212,3778252 764861,3757866 "/>
     <polygon id="_157" fill="#F88842" points="1391732,1566370 780151,3762961 713896,3742576 "/>
     <polygon id="_158" fill="#F88841" points="1391732,1566370 724088,3747673 657835,3727287 "/>
     <polygon id="_159" fill="#F88740" points="1391732,1566370 673124,3732383 606869,3706900 "/>
     <polygon id="_160" fill="#F88740" points="1391732,1566370 622160,3711997 555905,3686515 "/>
     <polygon id="_161" fill="#F7863F" points="1391732,1566370 566099,3691611 504940,3666129 "/>
     <polygon id="_162" fill="#F7863E" points="1391732,1566370 515132,3671224 453974,3645742 "/>
     <polygon id="_163" fill="#F7863D" points="1391732,1566370 464167,3650839 403010,3620259 "/>
     <polygon id="_164" fill="#F7853C" points="1391732,1566370 413204,3625357 352045,3594777 "/>
     <polygon id="_165" fill="#F7853B" points="1391732,1566370 362237,3599875 301080,3569295 "/>
     <polygon id="_166" fill="#F7853B" points="1391732,1566370 311272,3574393 250115,3543814 "/>
     <polygon id="_167" fill="#F7843A" points="1391732,1566370 265403,3548908 204246,3513234 "/>
     <polygon id="_168" fill="#F78439" points="1391732,1566370 214439,3518329 158378,3482655 "/>
     <polygon id="_169" fill="#F78338" points="1391732,1566370 168572,3492847 112508,3452076 "/>
     <polygon id="_170" fill="#F78337" points="1391732,1566370 122702,3462268 66641,3421498 "/>
     <polygon id="_171" fill="#F78337" points="1391732,1566370 76834,3426592 20771,3385821 "/>
     <polygon id="_172" fill="#F78236" points="1391732,1566370 30965,3396013 -25096,3355243 "/>
     <polygon id="_173" fill="#F78235" points="1391732,1566370 -14903,3360339 -65869,3319566 "/>
     <polygon id="_174" fill="#F78134" points="1391732,1566370 -55675,3324664 -111737,3283891 "/>
     <polygon id="_175" fill="#F78133" points="1391732,1566370 -101545,3288987 -152509,3243118 "/>
     <polygon id="_176" fill="#F78133" points="1391732,1566370 -142316,3253312 -193281,3207444 "/>
     <polygon id="_177" fill="#F78032" points="1391732,1566370 -183089,3217636 -234052,3166671 "/>
     <polygon id="_178" fill="#F78031" points="1391732,1566370 -223860,3176865 -269728,3125900 "/>
     <polygon id="_179" fill="#F67F30" points="1391732,1566370 -259534,3136093 -310501,3085128 "/>
     <polygon id="_180" fill="#F67F2F" points="1391732,1566370 -300307,3095320 -346176,3044355 "/>
     <polygon id="_181" fill="#F67F2E" points="1391732,1566370 -335983,3054549 -381850,2998486 "/>
     <polygon id="_182" fill="#F67E2E" points="1391732,1566370 -371659,3008680 -417527,2957715 "/>
     <polygon id="_183" fill="#F67E2D" points="1391732,1566370 -407335,2967907 -448106,2911846 "/>
     <polygon id="_184" fill="#F67D2C" points="1391732,1566370 -443009,2922040 -483781,2865978 "/>
     <polygon id="_185" fill="#F67D2B" points="1391732,1566370 -473588,2876170 -514361,2820109 "/>
     <polygon id="_186" fill="#F67D2A" points="1391732,1566370 -504167,2830303 -544939,2774242 "/>
     <polygon id="_187" fill="#F67C2A" points="1391732,1566370 -534745,2784433 -575518,2723275 "/>
     <polygon id="_188" fill="#F47B2B" points="1391732,1566370 -565324,2738565 -601000,2677408 "/>
     <polygon id="_189" fill="#EC7831" points="1391732,1566370 -595904,2687601 -626483,2626443 "/>
     <polygon id="_190" fill="#E47437" points="1391732,1566370 -621387,2641731 -651966,2575478 "/>
     <polygon id="_191" fill="#DC713C" points="1391732,1566370 -646870,2590767 -677448,2524513 "/>
     <polygon id="_192" fill="#D46D42" points="1391732,1566370 -672352,2539801 -697834,2473548 "/>
     <polygon id="_193" fill="#CC6A48" points="1391732,1566370 -692738,2488837 -723317,2422581 "/>
     <polygon id="_194" fill="#C5664E" points="1391732,1566370 -718220,2437872 -743704,2371618 "/>
     <polygon id="_195" fill="#BD6354" points="1391732,1566370 -738607,2386906 -758992,2320654 "/>
     <polygon id="_196" fill="#B55F5A" points="1391732,1566370 -753895,2330845 -779378,2264590 "/>
     <polygon id="_197" fill="#AD5C60" points="1391732,1566370 -774282,2279881 -794668,2213626 "/>
     <polygon id="_198" fill="#A55866" points="1391732,1566370 -789572,2228916 -809956,2157565 "/>
     <polygon id="_199" fill="#9D556B" points="1391732,1566370 -804862,2172853 -825247,2106600 "/>
     <polygon id="_200" fill="#965271" points="1391732,1566370 -820150,2116792 -835441,2050538 "/>
     <polygon id="_201" fill="#8E4E77" points="1391732,1566370 -835441,2065827 -850729,1994476 "/>
     <polygon id="_202" fill="#864B7D" points="1391732,1566370 -845633,2009766 -855826,1938415 "/>
     <polygon id="_203" fill="#7E4783" points="1391732,1566370 -855826,1953705 -866020,1887450 "/>
     <polygon id="_204" fill="#764489" points="1391732,1566370 -866020,1897642 -876211,1831388 "/>
     <polygon id="_205" fill="#6E408F" points="1391732,1566370 -871115,1841581 -881308,1775327 "/>
     <polygon id="_206" fill="#663D95" points="1391732,1566370 -876211,1790616 -886406,1719265 "/>
     <polygon id="_207" fill="#5F399B" points="1391732,1566370 -881308,1734555 -886406,1663204 "/>
     <polygon id="_208" fill="#5736A0" points="1391732,1566370 -886406,1678493 -886406,1607143 "/>
     <polygon id="_209" fill="#4F32A6" points="1391732,1566370 -886406,1622431 -886406,1551081 "/>
     <polygon id="_210" fill="#472FAC" points="1391732,1566370 -886406,1566370 -886406,1495018 "/>
     <polygon id="_211" fill="#3F2CB2" points="1391732,1566370 -886406,1510309 -886406,1438957 "/>
     <polygon id="_212" fill="#3728B8" points="1391732,1566370 -886406,1454248 -881308,1382896 "/>
     <polygon id="_213" fill="#3025BE" points="1391732,1566370 -881308,1398187 -876211,1326835 "/>
     <polygon id="_214" fill="#2E25BF" points="1391732,1566370 -876211,1342123 -871115,1270774 "/>
     <polygon id="_215" fill="#2F27C0" points="1391732,1566370 -871115,1286062 -860923,1214713 "/>
     <polygon id="_216" fill="#3028C1" points="1391732,1566370 -866020,1230001 -850729,1163746 "/>
     <polygon id="_217" fill="#302AC1" points="1391732,1566370 -855826,1173940 -840535,1107685 "/>
     <polygon id="_218" fill="#312BC2" points="1391732,1566370 -845633,1117879 -830343,1051624 "/>
     <polygon id="_219" fill="#312DC2" points="1391732,1566370 -830343,1066912 -815054,995563 "/>
     <polygon id="_220" fill="#322EC3" points="1391732,1566370 -820150,1010851 -799765,944596 "/>
     <polygon id="_221" fill="#3230C3" points="1391732,1566370 -804862,954790 -784474,888535 "/>
     <polygon id="_222" fill="#3331C4" points="1391732,1566370 -789572,903826 -769186,837570 "/>
     <polygon id="_223" fill="#3333C4" points="1391732,1566370 -774282,847765 -748799,786607 "/>
     <polygon id="_224" fill="#3434C5" points="1391732,1566370 -753895,796799 -728413,730545 "/>
     <polygon id="_225" fill="#3436C5" points="1391732,1566370 -733509,745834 -708028,679579 "/>
     <polygon id="_226" fill="#3537C6" points="1391732,1566370 -713125,694870 -687640,628615 "/>
     <polygon id="_227" fill="#3539C6" points="1391732,1566370 -692738,643903 -662158,577650 "/>
     <polygon id="_228" fill="#363AC7" points="1391732,1566370 -667256,592939 -636677,526684 "/>
     <polygon id="_229" fill="#373CC8" points="1391732,1566370 -646870,541975 -611194,480816 "/>
     <polygon id="_230" fill="#373DC8" points="1391732,1566370 -616291,491008 -585712,429850 "/>
     <polygon id="_231" fill="#383FC9" points="1391732,1566370 -590809,440044 -555132,383982 "/>
     <polygon id="_232" fill="#3840C9" points="1391732,1566370 -565324,394176 -524554,333019 "/>
     <polygon id="_233" fill="#3942CA" points="1391732,1566370 -534745,348307 -493975,287148 "/>
     <polygon id="_234" fill="#3943CA" points="1391732,1566370 -504167,297343 -463396,241281 "/>
     <polygon id="_235" fill="#3A45CB" points="1391732,1566370 -473588,251473 -432817,195412 "/>
     <polygon id="_236" fill="#3A46CB" points="1391732,1566370 -437914,205605 -397141,154639 "/>
     <polygon id="_237" fill="#3B48CC" points="1391732,1566370 -407335,164833 -361466,108771 "/>
     <polygon id="_238" fill="#3B49CC" points="1391732,1566370 -371659,118965 -325789,68000 "/>
     <polygon id="_239" fill="#3C4BCD" points="1391732,1566370 -335983,78193 -290114,27228 "/>
     <polygon id="_240" fill="#3C4CCD" points="1391732,1566370 -295211,37420 -249343,-13544 "/>
     <polygon id="_241" fill="#3D4ECE" points="1391732,1566370 -259534,-3351 -208570,-54317 "/>
     <polygon id="_242" fill="#3E4FCF" points="1391732,1566370 -218764,-44124 -167798,-95087 "/>
     <polygon id="_243" fill="#3E51CF" points="1391732,1566370 -177991,-84895 -127026,-130763 "/>
     <polygon id="_244" fill="#3F52D0" points="1391732,1566370 -137218,-120572 -86255,-171536 "/>
     <polygon id="_245" fill="#3F54D0" points="1391732,1566370 -96448,-161342 -45482,-207211 "/>
     <polygon id="_246" fill="#4055D1" points="1391732,1566370 -55675,-197019 386,-237791 "/>
     <polygon id="_247" fill="#4057D1" points="1391732,1566370 -9808,-232694 46256,-273467 "/>
     <polygon id="_248" fill="#4158D2" points="1391732,1566370 36061,-263272 92122,-304045 "/>
     <polygon id="_249" fill="#415AD2" points="1391732,1566370 81930,-298949 137993,-334625 "/>
     <polygon id="_250" fill="#425BD3" points="1391732,1566370 127799,-329528 183860,-365204 "/>
     <polygon id="_251" fill="#425DD3" points="1391732,1566370 173666,-360106 234824,-395783 "/>
     <polygon id="_252" fill="#435ED4" points="1391732,1566370 219536,-390686 280694,-421265 "/>
     <polygon id="_253" fill="#4360D4" points="1391732,1566370 270500,-416169 331658,-451844 "/>
     <polygon id="_254" fill="#4461D5" points="1391732,1566370 316370,-441650 377528,-477326 "/>
     <polygon id="_255" fill="#495ED3" points="1391732,1566370 367333,-467132 418298,-492614 "/>
    </g>
   </g>
   <path fill="none" d="M2064469 1077106l-315983 0c-40773,0 -71353,-30578 -71353,-71351l0 -315984c0,-40773 30580,-71352 71353,-71352l315983 0c40773,0 71351,30579 71351,71352l0 315984c0,40773 -30578,71351 -71351,71351zm-193668 1727714l-1207868 0c-351661,0 -631966,-285405 -631966,-631965l0 -983624 0 -229344c0,-346563 280308,-626870 631966,-626870l1207868 0c346563,0 631966,280307 631966,626870l0 1212966c0,346562 -285404,631965 -631966,631965l0 2zm-1207871 -2334197c-270114,0 -489264,219150 -489264,489264l0 157992 774669 0c91737,-66255 198765,-101931 315983,-101931 122316,0 229344,35676 321080,101931l774670 0 0 -157992c0,-270114 -219150,-489264 -489264,-489264l-1207870 0 0 0 -4 0zm-489264 789957l0 912273c0,270114 219150,489264 489264,489264l1207870 0c270113,0 489263,-219150 489263,-489264l0 -912273 -637061 0c61157,86641 91737,193668 91737,305790 0,305791 -244632,550422 -550422,550422 -300693,0 -550422,-244631 -550422,-550422 0,-112122 35675,-219149 96834,-305790l-637063 0zm1090652 -101930c-224246,0 -407720,183473 -407720,407720 0,224246 183474,412817 407720,412817 229344,0 412818,-188571 412818,-412817 0,-224247 -183474,-407720 -412818,-407720zm550422 -224246l178377 0 0 -178377 -178377 0 0 178377z"/>
  </g>
 </g>
</svg>
