<?xml version="1.0" encoding="utf-8"?>
<!-- Svg Vector Icons : http://www.onlinewebfonts.com/icon -->
<!DOCTYPE svg PUBLIC "-//W3C//DTD SVG 1.1//EN" "http://www.w3.org/Graphics/SVG/1.1/DTD/svg11.dtd">
<svg version="1.1" xmlns="http://www.w3.org/2000/svg" xmlns:xlink="http://www.w3.org/1999/xlink" x="0px" y="0px" viewBox="0 0 1000 1000" enable-background="new 0 0 1000 1000" xml:space="preserve">
<metadata> Svg Vector Icons : http://www.onlinewebfonts.com/icon </metadata>
<g><path d="M957.3,402l-47.2-11.8c-9.7-36.3-24.1-70.7-42.6-102.4l25.1-41.8c7.7-14.9,12.7-33.5,0-46.2l-92.4-92.4c-5.7-5.8-12.8-8-20.1-8c-8.9,0-18.3,3.4-26.1,8L712,132.6c-31.7-18.3-65.9-32.7-102.1-42.3L598,42.7c-5.1-16-14.6-32.7-32.7-32.7H434.7c-18,0-28.6,16.6-32.7,32.7l-11.9,47.5c-36.2,9.7-70.5,24-102.1,42.3l-42.1-25.2c-7.8-4.6-17.1-8-26.1-8c-7.3,0-14.4,2.2-20.1,8l-92.4,92.4c-12.7,12.8-7.7,31.3,0,46.2l25.1,41.8c-18.4,31.8-32.9,66.1-42.6,102.4L42.7,402c-16,4.1-32.7,14.6-32.7,32.7v130.7c0,18,16.7,27.5,32.7,32.6l47.2,11.8c9.7,36.3,24.1,70.7,42.6,102.4l-25.1,41.8c-8.4,14.2-12.7,33.4,0,46.2l92.4,92.4c5.6,5.6,12.4,7.8,19.4,7.8c9,0,18.4-3.5,26.8-7.8l42.1-25.3c31.7,18.3,65.9,32.7,102.1,42.3l11.9,47.6c4.1,16,14.6,32.7,32.7,32.7h130.7c18,0,27.6-16.6,32.7-32.7l11.9-47.5c36.2-9.7,70.5-24,102.1-42.3l42.1,25.3c8.4,4.3,17.8,7.8,26.8,7.8c7.1,0,13.8-2.2,19.4-7.8l92.4-92.4c12.7-12.8,8.4-32,0-46.2l-25.1-41.8c18.4-31.8,32.8-66.1,42.6-102.4l47.2-11.8c16-5.1,32.7-14.6,32.7-32.6V434.7C990,416.6,973.3,406.1,957.3,402 M945.5,555c-0.2,0.1-0.3,0.2-0.5,0.2l-45.6,11.4c-15.7,3.9-28,16.1-32.2,31.6c-8.6,32-21.4,62.9-38.1,91.6c-8.2,14-8,31.4,0.3,45.3l24.5,40.9l-77.8,77.8c-0.2-0.1-0.3-0.2-0.5-0.3l-40.7-24.4c-7.1-4.2-15-6.4-22.9-6.4c-7.7,0-15.4,2-22.3,6c-28.8,16.6-59.5,29.4-91.4,37.9c-15.6,4.2-27.8,16.5-31.7,32.2l-11.5,46c0,0.2-0.1,0.3-0.2,0.5H444.9L433.3,899c-3.9-15.7-16.1-28-31.7-32.2c-31.9-8.5-62.6-21.3-91.4-37.9c-6.9-4-14.6-6-22.2-6c-8,0-15.9,2.1-22.9,6.4l-40.7,24.4c-0.2,0.1-0.3,0.2-0.5,0.3l-77.8-77.8l24.5-40.9c8.4-13.9,8.5-31.3,0.3-45.3c-16.7-28.8-29.5-59.6-38.1-91.6c-4.2-15.6-16.5-27.8-32.2-31.6l-45.6-11.4c-0.2,0-0.3-0.1-0.5-0.2V444.9l46.1-11.5c15.7-3.9,28-16.1,32.2-31.7c8.6-32,21.4-62.8,38.1-91.6c8.1-14,8-31.4-0.3-45.3l-24.3-40.5c-0.1-0.1-0.2-0.3-0.2-0.5l77.8-77.8l41.1,24.7c7,4.2,15,6.3,22.9,6.3c7.7,0,15.4-2,22.3-6c28.8-16.6,59.5-29.4,91.4-37.9c15.6-4.2,27.8-16.5,31.7-32.2l11.6-46.5H555c0.1,0.2,0.1,0.3,0.2,0.5l11.5,46c3.9,15.7,16.1,28,31.7,32.2c31.9,8.5,62.6,21.2,91.4,37.9c6.9,4,14.6,6,22.3,6c8,0,15.9-2.1,22.9-6.3l41.1-24.7l77.8,77.8c-0.1,0.2-0.2,0.3-0.2,0.5l-24.3,40.4c-8.4,13.9-8.5,31.3-0.3,45.3c16.7,28.8,29.5,59.6,38.1,91.6c4.2,15.6,16.5,27.8,32.2,31.7l46.1,11.5L945.5,555L945.5,555z M500,277.3c-123,0-222.7,99.7-222.7,222.7c0,123,99.7,222.7,222.7,222.7c123,0,222.7-99.7,222.7-222.7C722.7,377,623,277.3,500,277.3 M500,678.2c-98.4,0-178.2-79.8-178.2-178.2c0-98.4,79.8-178.2,178.2-178.2c98.4,0,178.2,79.8,178.2,178.2C678.2,598.4,598.4,678.2,500,678.2"/></g>
</svg>