<?xml version="1.0" encoding="UTF-8"?>
<!DOCTYPE svg PUBLIC "-//W3C//DTD SVG 1.1//EN" "http://www.w3.org/Graphics/SVG/1.1/DTD/svg11.dtd">
<!-- Creator: CorelDRAW X8 -->
<svg xmlns="http://www.w3.org/2000/svg" xml:space="preserve" width="500px" height="500px" version="1.1" style="shape-rendering:geometricPrecision; text-rendering:geometricPrecision; image-rendering:optimizeQuality; fill-rule:evenodd; clip-rule:evenodd"
viewBox="0 0 500 500"
 xmlns:xlink="http://www.w3.org/1999/xlink">
 <defs>
  <style type="text/css">
   <![CDATA[
    .fil3 {fill:none}
    .fil0 {fill:#303F9F}
    .fil4 {fill:white;fill-rule:nonzero}
    .fil2 {fill:black;fill-opacity:0.501961}
    .fil1 {fill:#448AFF;fill-opacity:0.501961}
   ]]>
  </style>
   <clipPath id="id0">
    <path d="M245 70c92,0 167,78 167,174 0,96 -75,174 -167,174 -92,0 -167,-78 -167,-174 0,-96 75,-174 167,-174z"/>
   </clipPath>
   <clipPath id="id1">
    <path d="M245 70c92,0 167,78 167,174 0,96 -75,174 -167,174 -92,0 -167,-78 -167,-174 0,-96 75,-174 167,-174z"/>
   </clipPath>
 </defs>
 <g id="Camada_x0020_1">
  <metadata id="CorelCorpID_0Corel-Layer"/>
  <ellipse class="fil0" cx="245" cy="244" rx="217" ry="211"/>
  <g style="clip-path:url(#id0)">
   <polygon class="fil1" points="78,70 412,70 412,418 78,418 "/>
  </g>
  <g style="clip-path:url(#id1)">
   <g id="_161910604416">
    <path id="1" class="fil2" d="M136 310l-1 0 0 0 -1 0 0 -27 13 0 0 -66 0 0 0 -1 -1 0 0 -1 -1 0 0 0 -1 0 0 -1 -1 0 0 -1 0 0 0 -1 -1 0 0 0 -1 0 0 -1 -1 0 0 -1 0 0 0 -1 -1 0 0 -1 -1 0 0 0 -1 0 0 -1 0 0 0 -1 -1 0 0 -1 -1 0 0 0 -1 0 0 -27 66 0c5,0 10,1 15,3 4,2 8,5 12,9l0 0 0 0 1 1 0 0 1 0 0 1 0 0 1 1 0 0 1 0 0 1 0 0 1 1 0 0 1 0 0 1 0 0 1 0 0 1 0 0 1 1 0 0 1 0 0 1 0 0 1 1 0 0 1 0 0 1 0 0 1 1 0 0 0 0 1 1 0 0 1 0 0 1 0 0 1 1 0 0 1 0 0 1 0 0 1 1 0 0 1 0 0 1 0 0 1 1 0 0 0 0 1 1 0 0 1 0 0 1 0 0 1 1 0 0 1 0 0 1 0 0 1 1 0 0c0,-4 1,-8 3,-12 2,-4 5,-9 8,-12 4,-4 8,-6 13,-9 5,-2 10,-3 15,-3l26 0c6,0 11,1 16,3 5,3 9,5 12,9l1 0 0 1 0 0 1 0 0 1 1 0 0 1 0 0 1 0 0 1 1 0 0 1 0 0 1 0 0 1 0 0 1 0 0 1 1 0 0 1 0 0 1 0 0 1 1 0 0 1 0 0 1 0 0 1 1 0 0 1 0 0 1 0 0 1 0 0 1 0 0 1 1 0 0 1 0 0 1 0 0 1 1 0 0 1 0 0 1 0 0 1 0 0 1 0 0 1 1 0 0 1 0 0 1 0 0 1 1 0 0 1 0 0 1 0 0 1 1 0 0 1 0 0 1 0 0 1 0 0 1 0 0 1 1 0 0 1 0 0 1 0 0 1 1 0 0 1 0 0 1 0 0 1 0 0 1 0 0 1 1 0 0 1 0 0 1 0 0 1 1 0 0 1 0 0 1 0 0 1 1 0 0 1 0 0 1 0 0 1 0 0 1 0 0 1 1 0 0 1 0 0 1 0 0 1 1 0 0 1 0 0 1 0 0 1 0 0 1 0 0 1 1 0 0 1 0 0 1 0 0 1 1 0 0 1 0 0 1 0 0 1 1 0 0 1 0 0 1 0 0 1 0 0 1 0 0 1 1 0 0 1 0 0 1 0 0 1 1 0 0 1 0 0 1 0 0 1 0 0 1 0 0 1 1 0 0 1 0 0 1 0 0 1 1 0 0 1 0 0 1 0 0 1 1 0 0 1 0 0 1 0 0 1 0 0 1 0 0 1 1 0 0 1 0 0 1 0 0 1 1 0 0 1 0 0 1 0 0 1 0 0 1 0 0 1 1 0 0 1 0 0 1 0 0 1 1 0 0 1 0 0 1 0 0 1 1 0 0 1 0 0 1 0 0 1 0 0 1 0 0 1 1 0 0 1 0 0 1 0 0 1 1 0 0 1 0 0 1 0 0 1 0 0 1 1 0 0 1 0 0 1 0 0 1 0 0 1 1 0 0 1 0 0 1 0 0 1 1 0 0 1 0 0 1 0 0 1 0 0 1 0 0 1 1 0 0 1 0 0 1 0 0 1 1 0 0 1 0 0 1 0 0 1 0 0 1 1 0 0 1 0 0 1 0 0 1 0 0 1 1 0 0 1 0 0 1 0 0 1 1 0 0 1 0 0 1 0 0 1 0 0 1 0 0 1 1 0 0 1 0 0 1 0 0 1 1 0 0 1 0 0 1 0 0 1 0 0 1 1 0 0 1 0 0 1 0 0 1 0 0 1 1 0 0 1 0 0 1 0 0 1 1 0 0 1 0 0 1 0 0 1 0 0 1 0 0 1 1 0 0 1 0 0 1 0 0 1 1 0 0 1 0 0 1 0 0 1 0 0 1 1 0 0 1 0 0 1 0 0 1 0 0 1 1 0 0 1 0 0 1 0 0 1 1 0 0 1 0 0 1 0 0 1 0 0 1 0 0 1 1 0 0 1 0 0 1 0 0 1 1 0 0 1 0 0 1 0 0 1 0 0 1 1 0 0 1 0 0 1 0 0 1 0 0 1 1 0 0 1 0 0 1 0 0 1 1 0 0 1 0 0 1 0 0 1 0 0 1 0 0 1 1 0 0 1 0 0 1 0 0 1 1 0 0 1 0 0 1 0 0 1 0 0 1 1 0 0 1 0 0 1 0 0c4,4 7,8 9,13 2,4 3,10 3,15l0 6 -15 0 0 1 1 0 0 1 1 0 0 1 1 0 0 0 0 0 0 1 1 0 0 1 1 0 0 1 1 0 0 0 0 0 0 1 1 0 0 1 1 0 0 1 1 0 0 0 1 0 0 1 0 0 0 1 1 0 0 1 1 0 0 1 1 0 0 0 0 0 0 1 1 0 0 1 1 0 0 31c0,6 -1,11 -3,16 -2,5 -5,9 -9,12 -3,4 -7,7 -12,9 -5,2 -10,3 -15,3l-27 0c-5,0 -10,-1 -15,-3 -5,-2 -9,-5 -13,-9l0 0 0 -1 -1 0 0 0 0 -1 -1 0 0 0 -1 -1 0 0 0 -1 -1 0 0 0 -1 -1 0 0 0 -1 -1 0 0 0 0 -1 -1 0 0 0 -1 -1 0 0 0 -1 -1 0 0 0 -1 -1 0 0 0 -1 -1 0 0 0 -1 -1 0 0 0 -1 -1 0 0 0 0 -1 -1 0 0 0 -1 -1 0 0 0 -1 -1 0 0 0 -1 -1 0 0 0 -1 -1 0 0 0 0 -1 -1 0 0 0 0 -1 -1 0 0 0 0 0 0 -1 -1 0 0 0 0 0 -1 -1 0 0 0 0 0 0 0 0 0 0 0 0c0,3 -1,6 -3,9 -2,5 -5,9 -8,13 -4,4 -8,6 -13,9 -5,2 -10,3 -16,3l-66 0 0 -1 0 0 0 -1 -1 0 0 -1 -1 0 0 0 -1 0 0 -1 -1 0 0 -1 0 0 0 -1 -1 0 0 0 -1 0 0 -1 -1 0 0 -1 0 0 0 -1 -1 0 0 -1 -1 0 0 0 -1 0 0 -1 -1 0 0 -1 0 0 0 -1 -1 0 0 0 -1 0 0 -1 -1 0 0 -1 0 0 0 -1 -1 0 0 0 -1 0 0 -1 -1 0 0 -1 0 0 0 -1 -1 0 0 -1 -1 0 0 0 -1 0 0 -1 -1 0 0 -1 0 0 0 -1 -1 0 0 0 -1 0 0 -1 -1 0 0 -1 0 0 0 -1 -1 0 0 -1 -1 0 0 0 -1 0 0 -1 -1 0 0 -1 0 0 0 -1 -1 0 0 0 -1 0 0 -1 -1 0 0 -1 0 0 0 -1 -1 0 0 -1 -1 0 0 0 -1 0 0 -1 -1 0 0 -1 0 0 0 -1 -1 0 0 0 -1 0 0 -1 -1 0 0 -1 0 0 0 -1 -1 0 0 0 -1 0 0 -1 -1 0 0 -1 0 0 0 -1 -1 0 0 -1 -1 0 0 0 -1 0 0 -1 -1 0 0 -1 0 0 0 -1 -1 0 0 0 -1 0 0 -1 -1 0 0 -1 0 0 0 -1 -1 0 0 -1 -1 0 0 0 -1 0 0 -1 -1 0 0 -1 0 0 0 -1 -1 0 0 0 -1 0 0 -1 -1 0 0 -1 0 0 0 -1 -1 0 0 -1 -1 0 0 0 -1 0 0 -1 -1 0 0 -1 0 0 0 -1 -1 0 0 0 -1 0 0 -1 -1 0 0 -1 0 0 0 -1 -1 0 0 0 -1 0 0 -1 -1 0 0 -1 0 0 0 -1 -1 0 0 -1 -1 0 0 0 -1 0 0 -1 -1 0 0 -1 0 0 0 -1 -1 0 0 0 -1 0 0 -1 -1 0 0 -1 0 0 0 -1 -1 0 0 -1 -1 0 0 0 -1 0 0 -1 -1 0 0 -1 0 0 0 -1 -1 0 0 0 -1 0 0 -1 -1 0 0 -1 0 0 0 -1 -1 0 0 -1 -1 0 0 0 -1 0 0 -1 -1 0 0 -1 0 0 0 -1 -1 0 0 0 -1 0 0 -1 -1 0 0 -1 0 0 0 -1 -1 0 0 0 -1 0 0 -1 -1 0 0 -1 0 0 0 -1 -1 0 0 -1 -1 0 0 0 -1 0 0 -1 -1 0 0 -1 0 0 0 -1 -1 0 0 0 -1 0 0 -1 -1 0 0 -1 0 0 0 -1 -1 0 0 -1 -1 0 0 0 -1 0 0 -1 -1 0 0 -1 0 0 0 -1 -1 0 0 0 -1 0 0 -1 -1 0 0 -1 0 0 0 -1 -1 0 0 -1 -1 0 0 0 -1 0 0 -1 -1 0 0 -1 0 0 0 -1 -1 0 0 0 -1 0 0 -1 -1 0 0 -1 0 0 0 -1 -1 0 0 -1 -1 0 0 0 -1 0 0 -1 0 0 0 -1 -1 0 0 -1 -1 0 0 0 -1 0 0 -1 -1 0 0 -1 0 0 0 -1 -1 0 0 0 -1 0 0 -1 -1 0 0 -1 0 0 0 -1 -1 0 0 -1 -1 0 0 0 -1 0 0 -1 -1 0 0 -1 0 0 0 -1 -1 0 0 0 -1 0 0 -1 -1 0 0 -1 0 0 0 -1 -1 0 0 -1 -1 0 0 0 -1 0 0 -1 -1 0 0 -1 0 0 0 -1 -1 0 0 0 -1 0 0 -1 -1 0 0 -1 0 0 0 -1 -1 0 0 -1 -1 0 0 0 -1 0 0 -1 0 0 0 -1 -1 0 0 -1z"/>
   </g>
  </g>
  <path class="fil3" d="M245 70c92,0 167,78 167,174 0,96 -75,174 -167,174 -92,0 -167,-78 -167,-174 0,-96 75,-174 167,-174z"/>
  <path class="fil4" d="M229 241c4,3 6,8 8,12 2,5 3,10 3,16 0,6 -1,11 -3,16 -2,5 -5,9 -8,13 -4,3 -8,6 -13,8 -5,3 -11,4 -16,4l-66 0 0 -27 13 0 0 -78 -13 0 0 -27 66 0c5,0 10,1 15,3 4,2 8,5 12,9 3,3 6,7 8,12 2,4 3,9 3,14 0,5 -1,9 -2,14 -2,4 -4,7 -7,11zm-55 -36l0 23 26 0c3,0 6,-1 8,-3 2,-3 4,-5 4,-9 0,-3 -2,-6 -4,-8 -2,-2 -5,-3 -8,-3l-26 0zm26 78c4,0 7,-1 10,-4 3,-3 4,-6 4,-10 0,-4 -1,-7 -4,-10 -3,-3 -6,-5 -10,-5l-26 0 0 29 26 0z"/>
  <path id="1" class="fil4" d="M330 224l0 -6c0,-4 -2,-7 -4,-10 -3,-2 -6,-3 -10,-3l-26 0c-3,0 -7,1 -9,3 -3,3 -4,6 -4,10l0 52c0,4 1,7 4,10 2,2 6,3 9,3l26 0c4,0 7,-1 10,-3 2,-3 4,-6 4,-10l0 -5 -27 0 0 -26 53 0 0 31c0,6 -1,11 -3,16 -2,4 -5,9 -9,12 -3,4 -7,6 -12,9 -5,2 -10,3 -16,3l-26 0c-5,0 -10,-1 -15,-3 -5,-3 -9,-5 -13,-9 -3,-3 -6,-8 -8,-12 -2,-5 -3,-10 -3,-16l0 -52c0,-6 1,-11 3,-16 2,-4 5,-9 8,-12 4,-4 8,-6 13,-9 5,-2 10,-3 15,-3l26 0c6,0 11,1 16,3 5,3 9,5 12,9 4,3 7,8 9,12 2,5 3,10 3,16l0 6 -26 0z"/>
 </g>
</svg>
